<mxfile host="app.diagrams.net" agent="Mozilla/5.0 (X11; Linux x86_64; rv:109.0) Gecko/20100101 Firefox/115.0" version="26.0.10">
  <diagram name="Page-1" id="SotT7PKfqAtj6fm-6zKW">
    <mxGraphModel dx="2224" dy="822" grid="1" gridSize="10" guides="1" tooltips="1" connect="1" arrows="1" fold="1" page="1" pageScale="1" pageWidth="827" pageHeight="1169" math="0" shadow="0">
      <root>
        <mxCell id="0" />
        <mxCell id="1" parent="0" />
        <mxCell id="Cbqt6V5ET0-gixzIFbC0-1" value="Horizontal Tree Layout" style="swimlane;startSize=20;horizontal=0;childLayout=treeLayout;horizontalTree=1;sortEdges=1;resizable=0;containerType=tree;fontSize=12;" parent="1" vertex="1">
          <mxGeometry x="-50" y="220" width="800" height="826" as="geometry" />
        </mxCell>
        <mxCell id="Cbqt6V5ET0-gixzIFbC0-2" value="Projet de migration technique d’une Base de&lt;br&gt;Données" style="whiteSpace=wrap;html=1;" parent="Cbqt6V5ET0-gixzIFbC0-1" vertex="1">
          <mxGeometry x="40" y="365.1000000000001" width="110" height="70" as="geometry" />
        </mxCell>
        <mxCell id="Cbqt6V5ET0-gixzIFbC0-3" value="Lot 1 : Préparation" style="whiteSpace=wrap;html=1;" parent="Cbqt6V5ET0-gixzIFbC0-1" vertex="1">
          <mxGeometry x="200" y="133.8" width="110" height="40" as="geometry" />
        </mxCell>
        <mxCell id="Cbqt6V5ET0-gixzIFbC0-4" value="" style="edgeStyle=elbowEdgeStyle;elbow=horizontal;html=1;rounded=1;curved=0;sourcePerimeterSpacing=0;targetPerimeterSpacing=0;startSize=6;endSize=6;" parent="Cbqt6V5ET0-gixzIFbC0-1" source="Cbqt6V5ET0-gixzIFbC0-2" target="Cbqt6V5ET0-gixzIFbC0-3" edge="1">
          <mxGeometry relative="1" as="geometry" />
        </mxCell>
        <mxCell id="Cbqt6V5ET0-gixzIFbC0-5" value="Lot 2 : Réalisation" style="whiteSpace=wrap;html=1;" parent="Cbqt6V5ET0-gixzIFbC0-1" vertex="1">
          <mxGeometry x="200" y="403.80000000000007" width="100" height="40" as="geometry" />
        </mxCell>
        <mxCell id="Cbqt6V5ET0-gixzIFbC0-6" value="" style="edgeStyle=elbowEdgeStyle;elbow=horizontal;html=1;rounded=1;curved=0;sourcePerimeterSpacing=0;targetPerimeterSpacing=0;startSize=6;endSize=6;" parent="Cbqt6V5ET0-gixzIFbC0-1" source="Cbqt6V5ET0-gixzIFbC0-2" target="Cbqt6V5ET0-gixzIFbC0-5" edge="1">
          <mxGeometry relative="1" as="geometry" />
        </mxCell>
        <mxCell id="Cbqt6V5ET0-gixzIFbC0-7" value="" style="edgeStyle=elbowEdgeStyle;elbow=horizontal;html=1;rounded=1;curved=0;sourcePerimeterSpacing=0;targetPerimeterSpacing=0;startSize=6;endSize=6;" parent="Cbqt6V5ET0-gixzIFbC0-1" source="Cbqt6V5ET0-gixzIFbC0-3" target="Cbqt6V5ET0-gixzIFbC0-8" edge="1">
          <mxGeometry relative="1" as="geometry">
            <mxPoint x="240" y="-1527.0000000000002" as="sourcePoint" />
          </mxGeometry>
        </mxCell>
        <mxCell id="Cbqt6V5ET0-gixzIFbC0-8" value="Lot 1.1 : Schéma de la BdD" style="whiteSpace=wrap;html=1;" parent="Cbqt6V5ET0-gixzIFbC0-1" vertex="1">
          <mxGeometry x="360" y="20" width="110" height="40" as="geometry" />
        </mxCell>
        <mxCell id="Cbqt6V5ET0-gixzIFbC0-11" value="" style="edgeStyle=elbowEdgeStyle;elbow=horizontal;html=1;rounded=1;curved=0;sourcePerimeterSpacing=0;targetPerimeterSpacing=0;startSize=6;endSize=6;" parent="Cbqt6V5ET0-gixzIFbC0-1" source="Cbqt6V5ET0-gixzIFbC0-2" target="Cbqt6V5ET0-gixzIFbC0-12" edge="1">
          <mxGeometry relative="1" as="geometry">
            <mxPoint x="240" y="-1447.0000000000002" as="sourcePoint" />
          </mxGeometry>
        </mxCell>
        <mxCell id="Cbqt6V5ET0-gixzIFbC0-12" value="Lot 3 : Recette" style="whiteSpace=wrap;html=1;" parent="Cbqt6V5ET0-gixzIFbC0-1" vertex="1">
          <mxGeometry x="200" y="626.4000000000002" width="100" height="40" as="geometry" />
        </mxCell>
        <mxCell id="Cbqt6V5ET0-gixzIFbC0-13" value="" style="edgeStyle=elbowEdgeStyle;elbow=horizontal;html=1;rounded=1;curved=0;sourcePerimeterSpacing=0;targetPerimeterSpacing=0;startSize=6;endSize=6;" parent="Cbqt6V5ET0-gixzIFbC0-1" source="Cbqt6V5ET0-gixzIFbC0-8" target="Cbqt6V5ET0-gixzIFbC0-14" edge="1">
          <mxGeometry relative="1" as="geometry">
            <mxPoint x="400" y="-1462.0000000000002" as="sourcePoint" />
          </mxGeometry>
        </mxCell>
        <mxCell id="Cbqt6V5ET0-gixzIFbC0-14" value="Lot 1.1.1 : Rétroconception de la BdD existante" style="whiteSpace=wrap;html=1;" parent="Cbqt6V5ET0-gixzIFbC0-1" vertex="1">
          <mxGeometry x="520" y="20.000000000000057" width="110" height="40" as="geometry" />
        </mxCell>
        <mxCell id="Cbqt6V5ET0-gixzIFbC0-17" value="" style="edgeStyle=elbowEdgeStyle;elbow=horizontal;html=1;rounded=1;curved=0;sourcePerimeterSpacing=0;targetPerimeterSpacing=0;startSize=6;endSize=6;" parent="Cbqt6V5ET0-gixzIFbC0-1" source="Cbqt6V5ET0-gixzIFbC0-3" target="Cbqt6V5ET0-gixzIFbC0-18" edge="1">
          <mxGeometry relative="1" as="geometry">
            <mxPoint x="240" y="-1275.5000000000002" as="sourcePoint" />
          </mxGeometry>
        </mxCell>
        <mxCell id="Cbqt6V5ET0-gixzIFbC0-18" value="Lot 1.2 : Stratégie de Test" style="whiteSpace=wrap;html=1;" parent="Cbqt6V5ET0-gixzIFbC0-1" vertex="1">
          <mxGeometry x="360" y="101.19999999999999" width="110" height="40" as="geometry" />
        </mxCell>
        <mxCell id="Cbqt6V5ET0-gixzIFbC0-19" value="" style="edgeStyle=elbowEdgeStyle;elbow=horizontal;html=1;rounded=1;curved=0;sourcePerimeterSpacing=0;targetPerimeterSpacing=0;startSize=6;endSize=6;" parent="Cbqt6V5ET0-gixzIFbC0-1" source="Cbqt6V5ET0-gixzIFbC0-3" target="Cbqt6V5ET0-gixzIFbC0-20" edge="1">
          <mxGeometry relative="1" as="geometry">
            <mxPoint x="240" y="-1156.0000000000002" as="sourcePoint" />
          </mxGeometry>
        </mxCell>
        <mxCell id="Cbqt6V5ET0-gixzIFbC0-20" value="Lot 1.3 : Codage des scripts" style="whiteSpace=wrap;html=1;" parent="Cbqt6V5ET0-gixzIFbC0-1" vertex="1">
          <mxGeometry x="360" y="247.60000000000002" width="110" height="40" as="geometry" />
        </mxCell>
        <mxCell id="Cbqt6V5ET0-gixzIFbC0-21" value="" style="edgeStyle=elbowEdgeStyle;elbow=horizontal;html=1;rounded=1;curved=0;sourcePerimeterSpacing=0;targetPerimeterSpacing=0;startSize=6;endSize=6;" parent="Cbqt6V5ET0-gixzIFbC0-1" source="Cbqt6V5ET0-gixzIFbC0-20" target="Cbqt6V5ET0-gixzIFbC0-22" edge="1">
          <mxGeometry relative="1" as="geometry">
            <mxPoint x="400" y="-1088.72" as="sourcePoint" />
          </mxGeometry>
        </mxCell>
        <mxCell id="Cbqt6V5ET0-gixzIFbC0-22" value="Lot 1.3.1 : Scripts de création de schéma" style="whiteSpace=wrap;html=1;" parent="Cbqt6V5ET0-gixzIFbC0-1" vertex="1">
          <mxGeometry x="520" y="164.6" width="120" height="40" as="geometry" />
        </mxCell>
        <mxCell id="Cbqt6V5ET0-gixzIFbC0-23" value="" style="edgeStyle=elbowEdgeStyle;elbow=horizontal;html=1;rounded=1;curved=0;sourcePerimeterSpacing=0;targetPerimeterSpacing=0;startSize=6;endSize=6;" parent="Cbqt6V5ET0-gixzIFbC0-1" source="Cbqt6V5ET0-gixzIFbC0-20" target="Cbqt6V5ET0-gixzIFbC0-24" edge="1">
          <mxGeometry relative="1" as="geometry">
            <mxPoint x="400" y="-1088.72" as="sourcePoint" />
          </mxGeometry>
        </mxCell>
        <mxCell id="Cbqt6V5ET0-gixzIFbC0-24" value="Lot 1.3.2 : Script d’export des données de la&lt;br&gt;base MySQL" style="whiteSpace=wrap;html=1;" parent="Cbqt6V5ET0-gixzIFbC0-1" vertex="1">
          <mxGeometry x="520" y="246.10000000000005" width="150" height="40" as="geometry" />
        </mxCell>
        <mxCell id="Cbqt6V5ET0-gixzIFbC0-25" value="" style="edgeStyle=elbowEdgeStyle;elbow=horizontal;html=1;rounded=1;curved=0;sourcePerimeterSpacing=0;targetPerimeterSpacing=0;startSize=6;endSize=6;" parent="Cbqt6V5ET0-gixzIFbC0-1" source="Cbqt6V5ET0-gixzIFbC0-20" target="Cbqt6V5ET0-gixzIFbC0-26" edge="1">
          <mxGeometry relative="1" as="geometry">
            <mxPoint x="400" y="-902.22" as="sourcePoint" />
          </mxGeometry>
        </mxCell>
        <mxCell id="Cbqt6V5ET0-gixzIFbC0-26" value="Lot 1.3.3 : Script de peuplement de la nouvelle base PostgreSQL" style="whiteSpace=wrap;html=1;" parent="Cbqt6V5ET0-gixzIFbC0-1" vertex="1">
          <mxGeometry x="520" y="329.1" width="160" height="40" as="geometry" />
        </mxCell>
        <mxCell id="Cbqt6V5ET0-gixzIFbC0-27" value="" style="edgeStyle=elbowEdgeStyle;elbow=horizontal;html=1;rounded=1;curved=0;sourcePerimeterSpacing=0;targetPerimeterSpacing=0;startSize=6;endSize=6;" parent="Cbqt6V5ET0-gixzIFbC0-1" source="Cbqt6V5ET0-gixzIFbC0-5" target="Cbqt6V5ET0-gixzIFbC0-28" edge="1">
          <mxGeometry relative="1" as="geometry">
            <mxPoint x="240" y="-579.1400000000003" as="sourcePoint" />
          </mxGeometry>
        </mxCell>
        <mxCell id="Cbqt6V5ET0-gixzIFbC0-28" value="Lot 2.1 : Installation du serveur" style="whiteSpace=wrap;html=1;" parent="Cbqt6V5ET0-gixzIFbC0-1" vertex="1">
          <mxGeometry x="350" y="362.3" width="100" height="40" as="geometry" />
        </mxCell>
        <mxCell id="Cbqt6V5ET0-gixzIFbC0-29" value="" style="edgeStyle=elbowEdgeStyle;elbow=horizontal;html=1;rounded=1;curved=0;sourcePerimeterSpacing=0;targetPerimeterSpacing=0;startSize=6;endSize=6;" parent="Cbqt6V5ET0-gixzIFbC0-1" source="Cbqt6V5ET0-gixzIFbC0-5" target="Cbqt6V5ET0-gixzIFbC0-30" edge="1">
          <mxGeometry relative="1" as="geometry">
            <mxPoint x="240" y="-325.7000000000001" as="sourcePoint" />
          </mxGeometry>
        </mxCell>
        <mxCell id="Cbqt6V5ET0-gixzIFbC0-30" value="Lot 2.2 : Execution des scripts de migration" style="whiteSpace=wrap;html=1;" parent="Cbqt6V5ET0-gixzIFbC0-1" vertex="1">
          <mxGeometry x="350" y="445.3000000000001" width="120" height="40" as="geometry" />
        </mxCell>
        <mxCell id="Cbqt6V5ET0-gixzIFbC0-31" value="" style="edgeStyle=elbowEdgeStyle;elbow=horizontal;html=1;rounded=1;curved=0;sourcePerimeterSpacing=0;targetPerimeterSpacing=0;startSize=6;endSize=6;" parent="Cbqt6V5ET0-gixzIFbC0-1" source="Cbqt6V5ET0-gixzIFbC0-12" target="Cbqt6V5ET0-gixzIFbC0-32" edge="1">
          <mxGeometry relative="1" as="geometry">
            <mxPoint x="240" y="-34.25000000000017" as="sourcePoint" />
          </mxGeometry>
        </mxCell>
        <mxCell id="Cbqt6V5ET0-gixzIFbC0-32" value="Lot 3.1 : Test ensembles de données" style="whiteSpace=wrap;html=1;" parent="Cbqt6V5ET0-gixzIFbC0-1" vertex="1">
          <mxGeometry x="350" y="626.4000000000002" width="110" height="40" as="geometry" />
        </mxCell>
        <mxCell id="Cbqt6V5ET0-gixzIFbC0-33" value="" style="edgeStyle=elbowEdgeStyle;elbow=horizontal;html=1;rounded=1;curved=0;sourcePerimeterSpacing=0;targetPerimeterSpacing=0;startSize=6;endSize=6;" parent="Cbqt6V5ET0-gixzIFbC0-1" source="Cbqt6V5ET0-gixzIFbC0-32" target="Cbqt6V5ET0-gixzIFbC0-34" edge="1">
          <mxGeometry relative="1" as="geometry">
            <mxPoint x="390" y="162.69999999999987" as="sourcePoint" />
          </mxGeometry>
        </mxCell>
        <mxCell id="Cbqt6V5ET0-gixzIFbC0-34" value="Lot 3.1.1 : Test données Clients" style="whiteSpace=wrap;html=1;" parent="Cbqt6V5ET0-gixzIFbC0-1" vertex="1">
          <mxGeometry x="510" y="526.8000000000002" width="110" height="40" as="geometry" />
        </mxCell>
        <mxCell id="Cbqt6V5ET0-gixzIFbC0-35" value="" style="edgeStyle=elbowEdgeStyle;elbow=horizontal;html=1;rounded=1;curved=0;sourcePerimeterSpacing=0;targetPerimeterSpacing=0;startSize=6;endSize=6;" parent="Cbqt6V5ET0-gixzIFbC0-1" source="Cbqt6V5ET0-gixzIFbC0-32" target="Cbqt6V5ET0-gixzIFbC0-36" edge="1">
          <mxGeometry relative="1" as="geometry">
            <mxPoint x="390" y="162.69999999999987" as="sourcePoint" />
          </mxGeometry>
        </mxCell>
        <mxCell id="Cbqt6V5ET0-gixzIFbC0-36" value="Lot 3.1.2 : Test données Facturation" style="whiteSpace=wrap;html=1;" parent="Cbqt6V5ET0-gixzIFbC0-1" vertex="1">
          <mxGeometry x="510" y="608.3000000000002" width="110" height="40" as="geometry" />
        </mxCell>
        <mxCell id="Cbqt6V5ET0-gixzIFbC0-37" value="" style="edgeStyle=elbowEdgeStyle;elbow=horizontal;html=1;rounded=1;curved=0;sourcePerimeterSpacing=0;targetPerimeterSpacing=0;startSize=6;endSize=6;" parent="Cbqt6V5ET0-gixzIFbC0-1" source="Cbqt6V5ET0-gixzIFbC0-32" target="Cbqt6V5ET0-gixzIFbC0-38" edge="1">
          <mxGeometry relative="1" as="geometry">
            <mxPoint x="390" y="499.49999999999994" as="sourcePoint" />
          </mxGeometry>
        </mxCell>
        <mxCell id="Cbqt6V5ET0-gixzIFbC0-38" value="Lot 3.1.3 : Vérification de chaque composant" style="whiteSpace=wrap;html=1;" parent="Cbqt6V5ET0-gixzIFbC0-1" vertex="1">
          <mxGeometry x="510" y="724.5000000000003" width="110" height="40" as="geometry" />
        </mxCell>
        <mxCell id="Cbqt6V5ET0-gixzIFbC0-39" value="" style="edgeStyle=elbowEdgeStyle;elbow=horizontal;html=1;rounded=1;curved=0;sourcePerimeterSpacing=0;targetPerimeterSpacing=0;startSize=6;endSize=6;" parent="Cbqt6V5ET0-gixzIFbC0-1" source="Cbqt6V5ET0-gixzIFbC0-38" target="Cbqt6V5ET0-gixzIFbC0-40" edge="1">
          <mxGeometry relative="1" as="geometry">
            <mxPoint x="550" y="858.3" as="sourcePoint" />
          </mxGeometry>
        </mxCell>
        <mxCell id="Cbqt6V5ET0-gixzIFbC0-40" value="Lot 3.1.3.1 : Vérification structure des tables" style="whiteSpace=wrap;html=1;" parent="Cbqt6V5ET0-gixzIFbC0-1" vertex="1">
          <mxGeometry x="670" y="683.0000000000003" width="110" height="40" as="geometry" />
        </mxCell>
        <mxCell id="Cbqt6V5ET0-gixzIFbC0-41" value="" style="edgeStyle=elbowEdgeStyle;elbow=horizontal;html=1;rounded=1;curved=0;sourcePerimeterSpacing=0;targetPerimeterSpacing=0;startSize=6;endSize=6;" parent="Cbqt6V5ET0-gixzIFbC0-1" source="Cbqt6V5ET0-gixzIFbC0-38" target="Cbqt6V5ET0-gixzIFbC0-42" edge="1">
          <mxGeometry relative="1" as="geometry">
            <mxPoint x="410" y="858.3" as="sourcePoint" />
          </mxGeometry>
        </mxCell>
        <mxCell id="Cbqt6V5ET0-gixzIFbC0-42" value="Lot 3.1.3.2 : Vérification intégrité des données" style="whiteSpace=wrap;html=1;" parent="Cbqt6V5ET0-gixzIFbC0-1" vertex="1">
          <mxGeometry x="670" y="766.0000000000005" width="110" height="40" as="geometry" />
        </mxCell>
      </root>
    </mxGraphModel>
  </diagram>
</mxfile>
